<mxfile host="app.diagrams.net" modified="2024-04-03T14:56:49.063Z" agent="Mozilla/5.0 (Windows NT 10.0; Win64; x64) AppleWebKit/537.36 (KHTML, like Gecko) Chrome/123.0.0.0 Safari/537.36 Edg/123.0.0.0" version="24.2.1" etag="nKTNHfoCSZN56_l5WSKz" type="github">
  <diagram name="Page-1" id="esJCPu2ioJN4BY2KKiq-">
    <mxGraphModel>
      <root>
        <mxCell id="0" />
        <mxCell id="1" parent="0" />
      </root>
    </mxGraphModel>
  </diagram>
</mxfile>
